# xmcd CD database file
#
# Track frame offsets:
#	150
#	30103
#	57074
#	71711
#	112468
#	132746
#	142632
#	159953
#	174548
#	214310
#	220242
#	226219
#	231617
#	236872
#	242598
#
# Disc length: 3679 seconds
#
# Revision: 0
# Processed by: cddbd v1.5.2PL0 Copyright (c) Steve Scherf et al.
# Submitted via: CDex 1.70beta2
#
DISCID=db0e5d0f
DTITLE=Andre Bourgeois - eau de Mai
DYEAR=2009
DGENRE=Jazz
TTITLE0=Sang de Cochon
TTITLE1=Quosse qu'est la best way d'oter du crayon off mon wall
TTITLE2=Le Coude
TTITLE3=U-Bahn
TTITLE4=The Cool youth Deacon
TTITLE5=There's a Distress Call on the Toastmotron Communicator
TTITLE6=Have a Taste of my Hyper Corrosive Croutons, Arch Villain
TTITLE7=Quick Man! Cling Tenaciously
TTITLE8=Cherimole
TTITLE9=Minute 1 Lundi
TTITLE10=Minute 2 Novas and Zeelas
TTITLE11=Minute 3 Zebes
TTITLE12=Minute 4 Kitty Corner
TTITLE13=Minute 5 Lacian Threemaster
TTITLE14=Eau de Mai
EXTD=YEAR: 2009
EXTT0=
EXTT1=
EXTT2=
EXTT3=
EXTT4=
EXTT5=
EXTT6=
EXTT7=
EXTT8=
EXTT9=
EXTT10=
EXTT11=
EXTT12=
EXTT13=
EXTT14=
PLAYORDER=
